<svg width="60" height="60" viewBox="0 0 60 60" fill="none" xmlns="http://www.w3.org/2000/svg">
<g filter="url(#filter0_i_1581_530)">
<path d="M22.0012 10.9631H43.8318C44.1301 10.9631 44.4163 11.0817 44.6273 11.2926C44.8383 11.5036 44.9568 11.7898 44.9568 12.0881C44.9568 13.2319 44.5024 14.3288 43.6937 15.1375C42.8849 15.9463 41.788 16.4006 40.6443 16.4006H22.0012C21.6073 16.4006 21.2296 16.5571 20.9511 16.8356C20.6726 17.1141 20.5162 17.4918 20.5162 17.8856C20.5162 18.2795 20.6726 18.6572 20.9511 18.9357C21.2296 19.2142 21.6073 19.3706 22.0012 19.3706H36.2118C38.0244 19.3706 39.7627 20.0907 41.0444 21.3724C42.3261 22.6541 43.0462 24.3924 43.0462 26.205C43.0462 28.0176 42.3261 29.7559 41.0444 31.0376C39.7627 32.3193 38.0244 33.0394 36.2118 33.0394H25.768C25.3933 33.0394 25.034 33.1882 24.769 33.4532C24.5041 33.7181 24.3552 34.0775 24.3552 34.4522C24.3552 34.8269 24.5041 35.1863 24.769 35.4512C25.034 35.7162 25.3933 35.865 25.768 35.865H34.0424C34.9572 35.8499 35.8659 36.0171 36.7155 36.3567C37.565 36.6964 38.3385 37.2017 38.9908 37.8434C39.6431 38.485 40.1611 39.25 40.5147 40.0938C40.8684 40.9377 41.0505 41.8435 41.0505 42.7584C41.0505 43.6734 40.8684 44.5792 40.5147 45.423C40.1611 46.2669 39.6431 47.0319 38.9908 47.6735C38.3385 48.3152 37.565 48.8205 36.7155 49.1602C35.8659 49.4998 34.9572 49.667 34.0424 49.6519H24.2624C23.9392 49.6519 23.6292 49.5235 23.4006 49.2949C23.1721 49.0664 23.0437 48.7564 23.0437 48.4331V47.9644C23.0437 46.9698 23.4387 46.016 24.142 45.3127C24.8453 44.6095 25.7991 44.2144 26.7937 44.2144H34.0443C34.4214 44.2008 34.7785 44.0415 35.0405 43.77C35.3025 43.4984 35.4489 43.1358 35.4489 42.7584C35.4489 42.3811 35.3025 42.0185 35.0405 41.7469C34.7785 41.4754 34.4214 41.316 34.0443 41.3025H25.768C23.9515 41.3025 22.2093 40.5809 20.9248 39.2964C19.6403 38.0119 18.9187 36.2697 18.9187 34.4531C18.9187 32.6366 19.6403 30.8944 20.9248 29.6099C22.2093 28.3254 23.9515 27.6038 25.768 27.6038H36.2118C36.5823 27.6038 36.9376 27.4566 37.1995 27.1946C37.4615 26.9327 37.6087 26.5774 37.6087 26.2069C37.6087 25.8364 37.4615 25.4811 37.1995 25.2191C36.9376 24.9572 36.5823 24.81 36.2118 24.81H22.003C21.0938 24.81 20.1935 24.6309 19.3535 24.283C18.5136 23.9351 17.7503 23.4251 17.1074 22.7822C16.4645 22.1393 15.9545 21.376 15.6066 20.5361C15.2587 19.6961 15.0796 18.7958 15.0796 17.8866C15.0796 16.9774 15.2587 16.0771 15.6066 15.2371C15.9545 14.3971 16.4645 13.6339 17.1074 12.991C17.7503 12.3481 18.5136 11.8381 19.3535 11.4901C20.1935 11.1422 21.0938 10.9631 22.003 10.9631H22.0012Z" fill="blue"/>
</g>
<g filter="url(#filter1_f_1581_530)">
<path d="M42.1445 13.6819H21.9077C20.8102 13.6819 19.7576 14.1179 18.9816 14.8939C18.2055 15.67 17.7695 16.7225 17.7695 17.82V17.82C17.7695 20.1038 19.622 21.9563 21.9077 21.9563H36.2477C37.3218 21.9563 38.3519 22.383 39.1114 23.1425C39.871 23.902 40.2977 24.9321 40.2977 26.0063V26.0063C40.2979 26.5383 40.1933 27.0651 39.9899 27.5567C39.7865 28.0483 39.4882 28.495 39.1121 28.8713C38.736 29.2475 38.2894 29.546 37.798 29.7497C37.3065 29.9533 36.7797 30.0581 36.2477 30.0581H25.6727C23.4283 30.0581 21.6077 31.8769 21.6077 34.1231C21.6077 36.3694 23.4264 38.1881 25.6727 38.1881H34.082C36.3508 38.1881 38.1883 40.0294 38.1883 42.2981C38.1885 42.8375 38.0825 43.3717 37.8762 43.8701C37.67 44.3685 37.3676 44.8214 36.9863 45.2029C36.6049 45.5844 36.1522 45.887 35.6539 46.0935C35.1555 46.3 34.6214 46.4063 34.082 46.4063H26.9102" stroke="url(#paint1_linear_1581_530)" stroke-width="1.40625" stroke-linecap="round" stroke-linejoin="round"/>
</g>
<path d="M41.2054 13.8094C41.7511 13.8094 42.1935 13.367 42.1935 12.8213C42.1935 12.2755 41.7511 11.8331 41.2054 11.8331C40.6597 11.8331 40.2173 12.2755 40.2173 12.8213C40.2173 13.367 40.6597 13.8094 41.2054 13.8094Z" fill="blue"/>
<g filter="url(#filter2_ii_1581_530)">
<path d="M29.9437 2.97375C27.9712 2.97375 26.3906 4.605 26.4524 6.57563L26.5931 10.9631H33.2943L33.4312 6.57563C33.446 6.10824 33.3668 5.64264 33.1982 5.20646C33.0296 4.77028 32.7752 4.37241 32.4499 4.03646C32.1246 3.70051 31.7351 3.43333 31.3046 3.25078C30.8741 3.06823 30.4113 2.97402 29.9437 2.97375ZM33.1237 16.3913H26.7674L27.1237 27.5925H32.7712L33.1237 16.3913ZM27.6562 44.2238L27.2999 33.0225H32.6006L32.2481 44.2238H27.6581H27.6562ZM27.8306 49.6519L27.9449 53.2331C27.9449 53.7662 28.1567 54.2775 28.5337 54.6544C28.9106 55.0314 29.4219 55.2431 29.9549 55.2431C30.488 55.2431 30.9993 55.0314 31.3762 54.6544C31.7532 54.2775 31.9649 53.7662 31.9649 53.2331L32.0774 49.6519H27.8306Z" fill="blue"/>
</g>
<defs>
<filter id="filter0_i_1581_530" x="15.0796" y="10.4944" width="29.877" height="39.1584" filterUnits="userSpaceOnUse" color-interpolation-filters="sRGB">
<feFlood flood-opacity="0" result="BackgroundImageFix"/>
<feBlend mode="normal" in="SourceGraphic" in2="BackgroundImageFix" result="shape"/>
<feColorMatrix in="SourceAlpha" type="matrix" values="0 0 0 0 0 0 0 0 0 0 0 0 0 0 0 0 0 0 127 0" result="hardAlpha"/>
<feOffset dy="-0.46875"/>
<feGaussianBlur stdDeviation="1.40625"/>
<feComposite in2="hardAlpha" operator="arithmetic" k2="-1" k3="1"/>
<feColorMatrix type="matrix" values="0 0 0 0 0.231373 0 0 0 0 0.411765 0 0 0 0 0.854902 0 0 0 1 0"/>
<feBlend mode="normal" in2="shape" result="effect1_innerShadow_1581_530"/>
</filter>
<filter id="filter1_f_1581_530" x="15.6602" y="11.5725" width="28.5938" height="36.9431" filterUnits="userSpaceOnUse" color-interpolation-filters="sRGB">
<feFlood flood-opacity="0" result="BackgroundImageFix"/>
<feBlend mode="normal" in="SourceGraphic" in2="BackgroundImageFix" result="shape"/>
<feGaussianBlur stdDeviation="0.703125" result="effect1_foregroundBlur_1581_530"/>
</filter>
<filter id="filter2_ii_1581_530" x="26.2632" y="2.97375" width="9.98242" height="52.2694" filterUnits="userSpaceOnUse" color-interpolation-filters="sRGB">
<feFlood flood-opacity="0" result="BackgroundImageFix"/>
<feBlend mode="normal" in="SourceGraphic" in2="BackgroundImageFix" result="shape"/>
<feColorMatrix in="SourceAlpha" type="matrix" values="0 0 0 0 0 0 0 0 0 0 0 0 0 0 0 0 0 0 127 0" result="hardAlpha"/>
<feOffset dx="2.8125"/>
<feGaussianBlur stdDeviation="1.40625"/>
<feComposite in2="hardAlpha" operator="arithmetic" k2="-1" k3="1"/>
<feColorMatrix type="matrix" values="0 0 0 0 0.14902 0 0 0 0 0.447059 0 0 0 0 0.862745 0 0 0 1 0"/>
<feBlend mode="normal" in2="shape" result="effect1_innerShadow_1581_530"/>
<feColorMatrix in="SourceAlpha" type="matrix" values="0 0 0 0 0 0 0 0 0 0 0 0 0 0 0 0 0 0 127 0" result="hardAlpha"/>
<feOffset dx="-0.1875"/>
<feGaussianBlur stdDeviation="0.46875"/>
<feComposite in2="hardAlpha" operator="arithmetic" k2="-1" k3="1"/>
<feColorMatrix type="matrix" values="0 0 0 0 0.14902 0 0 0 0 0.447059 0 0 0 0 0.862745 0 0 0 1 0"/>
<feBlend mode="normal" in2="effect1_innerShadow_1581_530" result="effect2_innerShadow_1581_530"/>
</filter>
<linearGradient id="paint0_linear_1581_530" x1="30.0168" y1="10.9631" x2="30.0168" y2="49.6519" gradientUnits="userSpaceOnUse">
<stop stop-color="#429AFF"/>
<stop offset="1" stop-color="#277BE3"/>
</linearGradient>
<linearGradient id="paint1_linear_1581_530" x1="29.957" y1="13.6819" x2="29.957" y2="46.4063" gradientUnits="userSpaceOnUse">
<stop stop-color="#57A1FF"/>
<stop offset="1" stop-color="#6D9BF1"/>
</linearGradient>
<radialGradient id="paint2_radial_1581_530" cx="0" cy="0" r="1" gradientUnits="userSpaceOnUse" gradientTransform="translate(40.7385 13.0369) rotate(-21.913) scale(1.57005 1.80606)">
<stop stop-color="white"/>
<stop offset="0.752" stop-color="#D2C6DA"/>
</radialGradient>
</defs>
</svg>
