<svg width="60" height="60" viewBox="0 0 60 60" fill="none" xmlns="http://www.w3.org/2000/svg">
<g clip-path="url(#clip0_1581_304)">
<path d="M15 25V37.5H45V25H15ZM32.5 32.5H17.5V30H32.5V32.5ZM36.25 32.5C36.0028 32.5 35.7611 32.4267 35.5555 32.2893C35.35 32.152 35.1898 31.9568 35.0951 31.7284C35.0005 31.4999 34.9758 31.2486 35.024 31.0061C35.0723 30.7637 35.1913 30.5409 35.3661 30.3661C35.5409 30.1913 35.7637 30.0722 36.0061 30.024C36.2486 29.9758 36.4999 30.0005 36.7284 30.0952C36.9568 30.1898 37.152 30.35 37.2893 30.5555C37.4267 30.7611 37.5 31.0028 37.5 31.25C37.5 31.5815 37.3683 31.8995 37.1339 32.1339C36.8995 32.3683 36.5815 32.5 36.25 32.5ZM41.25 32.5C41.0028 32.5 40.7611 32.4267 40.5555 32.2893C40.35 32.152 40.1898 31.9568 40.0952 31.7284C40.0005 31.4999 39.9758 31.2486 40.024 31.0061C40.0723 30.7637 40.1913 30.5409 40.3661 30.3661C40.5409 30.1913 40.7637 30.0722 41.0061 30.024C41.2486 29.9758 41.4999 30.0005 41.7284 30.0952C41.9568 30.1898 42.152 30.35 42.2893 30.5555C42.4267 30.7611 42.5 31.0028 42.5 31.25C42.5 31.5815 42.3683 31.8995 42.1339 32.1339C41.8995 32.3683 41.5815 32.5 41.25 32.5ZM15 42.5V55H45V42.5H15ZM32.5 50H17.5V47.5H32.5V50ZM36.25 50C36.0028 50 35.7611 49.9267 35.5555 49.7893C35.35 49.652 35.1898 49.4568 35.0951 49.2284C35.0005 48.9999 34.9758 48.7486 35.024 48.5061C35.0723 48.2637 35.1913 48.0409 35.3661 47.8661C35.5409 47.6913 35.7637 47.5723 36.0061 47.524C36.2486 47.4758 36.4999 47.5005 36.7284 47.5952C36.9568 47.6898 37.152 47.85 37.2893 48.0555C37.4267 48.2611 37.5 48.5028 37.5 48.75C37.5 49.0815 37.3683 49.3995 37.1339 49.6339C36.8995 49.8683 36.5815 50 36.25 50ZM41.25 50C41.0028 50 40.7611 49.9267 40.5555 49.7893C40.35 49.652 40.1898 49.4568 40.0952 49.2284C40.0005 48.9999 39.9758 48.7486 40.024 48.5061C40.0723 48.2637 40.1913 48.0409 40.3661 47.8661C40.5409 47.6913 40.7637 47.5723 41.0061 47.524C41.2486 47.4758 41.4999 47.5005 41.7284 47.5952C41.9568 47.6898 42.152 47.85 42.2893 48.0555C42.4267 48.2611 42.5 48.5028 42.5 48.75C42.5 49.0815 42.3683 49.3995 42.1339 49.6339C41.8995 49.8683 41.5815 50 41.25 50Z" fill="white"/>
<path d="M57.414 20C56.3053 18.6276 54.9359 17.488 53.3849 16.6471C51.8338 15.8061 50.1317 15.2803 48.3765 15.1C47.6245 11.2906 45.7071 7.80906 42.8897 5.13713C40.0722 2.46519 36.4939 0.734956 32.65 0.185823C28.8061 -0.36331 24.8865 0.295806 21.4336 2.07197C17.9807 3.84814 15.1651 6.65355 13.3765 10.1C12.2235 10.2372 11.0907 10.5099 10.0015 10.9125C7.07899 11.9384 4.54722 13.8466 2.75609 16.3736C0.964967 18.9005 0.00292969 21.9214 0.00292969 25.0188C0.00292969 28.1162 0.964967 31.137 2.75609 33.664C4.54722 36.191 7.07899 38.0992 10.0015 39.125V20H50.0015V39.75C52.8243 39.1724 55.3611 37.6379 57.1831 35.4059C59.0052 33.1739 60.0007 30.3813 60.0015 27.5C59.9934 24.7825 59.0833 22.1445 57.414 20Z" fill="white"/>
</g>
<defs>
<linearGradient id="paint0_linear_1581_304" x1="29.9986" y1="25" x2="29.9986" y2="54.9993" gradientUnits="userSpaceOnUse">
<stop stop-color="#429AFF"/>
<stop offset="1" stop-color="#277BE3"/>
</linearGradient>
<linearGradient id="paint1_linear_1581_304" x1="29.9994" y1="-0.00244141" x2="29.9994" y2="39.7491" gradientUnits="userSpaceOnUse">
<stop stop-color="#429AFF"/>
<stop offset="1" stop-color="#277BE3"/>
</linearGradient>
<clipPath id="clip0_1581_304">
<rect width="60" height="60" fill="white"/>
</clipPath>
</defs>
</svg>
