<svg width="56" height="56" viewBox="0 0 56 56" fill="none" xmlns="http://www.w3.org/2000/svg">
<path d="M50.2741 20.0999L19.3991 3.57494C18.7023 3.20502 17.9254 3.0116 17.1366 3.0116C16.3477 3.0116 15.5708 3.20502 14.8741 3.57494L5.74906 8.32494C4.9263 8.77581 4.23797 9.43701 3.75438 10.241C3.2708 11.0449 3.00929 11.9629 2.99658 12.901C2.98387 13.8391 3.22041 14.7638 3.68203 15.5806C4.14365 16.3973 4.81382 17.0769 5.62406 17.5499L36.1741 34.8749C36.9161 35.2865 37.7506 35.5024 38.5991 35.5024C39.4475 35.5024 40.2821 35.2865 41.0241 34.8749L50.4991 29.2749C51.2926 28.79 51.9446 28.1048 52.3896 27.2882C52.8345 26.4716 53.0567 25.5522 53.0339 24.6225C53.0111 23.6928 52.7441 22.7855 52.2597 21.9916C51.7752 21.1978 51.0904 20.5454 50.2741 20.0999V20.0999Z" stroke="url(#paint0_linear_1581_132)" stroke-width="4.91667" stroke-linecap="round" stroke-linejoin="round"/>
<path d="M50.2741 20.0999L19.3991 3.57494C18.7023 3.20502 17.9254 3.0116 17.1366 3.0116C16.3477 3.0116 15.5708 3.20502 14.8741 3.57494L5.74906 8.32494C4.9263 8.77581 4.23797 9.43701 3.75438 10.241C3.2708 11.0449 3.00929 11.9629 2.99658 12.901C2.98387 13.8391 3.22041 14.7638 3.68203 15.5806C4.14365 16.3973 4.81382 17.0769 5.62406 17.5499L36.1741 34.8749C36.9161 35.2865 37.7506 35.5024 38.5991 35.5024C39.4475 35.5024 40.2821 35.2865 41.0241 34.8749L50.4991 29.2749C51.2926 28.79 51.9446 28.1048 52.3896 27.2882C52.8345 26.4716 53.0567 25.5522 53.0339 24.6225C53.0111 23.6928 52.7441 22.7855 52.2597 21.9916C51.7752 21.1978 51.0904 20.5454 50.2741 20.0999V20.0999Z" stroke="url(#paint1_radial_1581_132)" stroke-opacity="0.2" stroke-width="4.91667" stroke-linecap="round" stroke-linejoin="round"/>
<path d="M27.9998 52.9999V30.4999M5.72485 20.0999L36.5998 3.57494C37.2966 3.20502 38.0735 3.0116 38.8623 3.0116C39.6512 3.0116 40.4281 3.20502 41.1248 3.57494L50.2498 8.32494C51.0792 8.76443 51.777 9.4163 52.2719 10.2139C52.7667 11.0115 53.0409 11.9262 53.0663 12.8645C53.0918 13.8028 52.8675 14.731 52.4166 15.5542C51.9657 16.3775 51.3042 17.0662 50.4998 17.5499L19.8248 34.8749C19.0828 35.2864 18.2483 35.5024 17.3998 35.5024C16.5514 35.5024 15.7169 35.2864 14.9748 34.8749L5.49985 29.2749C4.70629 28.79 4.0543 28.1048 3.60935 27.2882C3.16441 26.4716 2.94217 25.5522 2.96497 24.6225C2.98777 23.6928 3.2548 22.7855 3.73924 21.9916C4.22368 21.1978 4.90848 20.5454 5.72485 20.0999V20.0999Z" stroke="url(#paint2_linear_1581_132)" stroke-width="4.91667" stroke-linecap="round" stroke-linejoin="round"/>
<path d="M27.9998 52.9999V30.4999M5.72485 20.0999L36.5998 3.57494C37.2966 3.20502 38.0735 3.0116 38.8623 3.0116C39.6512 3.0116 40.4281 3.20502 41.1248 3.57494L50.2498 8.32494C51.0792 8.76443 51.777 9.4163 52.2719 10.2139C52.7667 11.0115 53.0409 11.9262 53.0663 12.8645C53.0918 13.8028 52.8675 14.731 52.4166 15.5542C51.9657 16.3775 51.3042 17.0662 50.4998 17.5499L19.8248 34.8749C19.0828 35.2864 18.2483 35.5024 17.3998 35.5024C16.5514 35.5024 15.7169 35.2864 14.9748 34.8749L5.49985 29.2749C4.70629 28.79 4.0543 28.1048 3.60935 27.2882C3.16441 26.4716 2.94217 25.5522 2.96497 24.6225C2.98777 23.6928 3.2548 22.7855 3.73924 21.9916C4.22368 21.1978 4.90848 20.5454 5.72485 20.0999V20.0999Z" stroke="url(#paint3_radial_1581_132)" stroke-opacity="0.2" stroke-width="4.91667" stroke-linecap="round" stroke-linejoin="round"/>
<path d="M48 31.75V40.175C48.001 41.1186 47.7427 42.0444 47.2533 42.8512C46.7639 43.658 46.0623 44.3148 45.225 44.75L30.225 52.45C29.5377 52.8072 28.7746 52.9936 28 52.9936C27.2255 52.9936 26.4623 52.8072 25.775 52.45L10.775 44.75C9.93771 44.3148 9.23608 43.658 8.7467 42.8512C8.25733 42.0444 7.99903 41.1186 8 40.175V31.75" stroke="url(#paint4_linear_1581_132)" stroke-width="4.91667" stroke-linecap="round" stroke-linejoin="round"/>
<path d="M48 31.75V40.175C48.001 41.1186 47.7427 42.0444 47.2533 42.8512C46.7639 43.658 46.0623 44.3148 45.225 44.75L30.225 52.45C29.5377 52.8072 28.7746 52.9936 28 52.9936C27.2255 52.9936 26.4623 52.8072 25.775 52.45L10.775 44.75C9.93771 44.3148 9.23608 43.658 8.7467 42.8512C8.25733 42.0444 7.99903 41.1186 8 40.175V31.75" stroke="url(#paint5_radial_1581_132)" stroke-opacity="0.2" stroke-width="4.91667" stroke-linecap="round" stroke-linejoin="round"/>
<defs>
<linearGradient id="paint0_linear_1581_132" x1="28.0135" y1="3.0116" x2="28.0135" y2="35.5016" gradientUnits="userSpaceOnUse">
<stop stop-color="#429AFF"/>
<stop offset="1" stop-color="#277BE3"/>
</linearGradient>
<radialGradient id="paint1_radial_1581_132" cx="0" cy="0" r="1" gradientUnits="userSpaceOnUse" gradientTransform="translate(28.0158 19.257) rotate(90) scale(16.2454 25.0197)">
<stop/>
<stop offset="1" stop-opacity="0"/>
</radialGradient>
<linearGradient id="paint2_linear_1581_132" x1="28.0135" y1="3.0116" x2="28.0135" y2="52.9987" gradientUnits="userSpaceOnUse">
<stop stop-color="#429AFF"/>
<stop offset="1" stop-color="#277BE3"/>
</linearGradient>
<radialGradient id="paint3_radial_1581_132" cx="0" cy="0" r="1" gradientUnits="userSpaceOnUse" gradientTransform="translate(28.0158 28.0058) rotate(90) scale(24.9942 25.0524)">
<stop/>
<stop offset="1" stop-opacity="0"/>
</radialGradient>
<linearGradient id="paint4_linear_1581_132" x1="27.9981" y1="31.75" x2="27.9981" y2="52.9931" gradientUnits="userSpaceOnUse">
<stop stop-color="#429AFF"/>
<stop offset="1" stop-color="#277BE3"/>
</linearGradient>
<radialGradient id="paint5_radial_1581_132" cx="0" cy="0" r="1" gradientUnits="userSpaceOnUse" gradientTransform="translate(28 42.3718) rotate(90) scale(10.6218 20)">
<stop/>
<stop offset="1" stop-opacity="0"/>
</radialGradient>
</defs>
</svg>
