<svg width="62" height="70" viewBox="0 0 62 70" fill="none" xmlns="http://www.w3.org/2000/svg">
<path d="M18.0654 33.3594V27.8906C18.0654 26.9846 18.8 26.25 19.7061 26.25H25.1748C26.0808 26.25 26.8154 26.9846 26.8154 27.8906V33.3594C26.8154 34.2654 26.0808 35 25.1748 35H19.7061C18.8 35 18.0654 34.2654 18.0654 33.3594ZM37.2061 35H42.6748C43.5808 35 44.3154 34.2654 44.3154 33.3594V27.8906C44.3154 26.9846 43.5808 26.25 42.6748 26.25H37.2061C36.3 26.25 35.5654 26.9846 35.5654 27.8906V33.3594C35.5654 34.2654 36.3 35 37.2061 35ZM26.8154 46.4844V41.0156C26.8154 40.1096 26.0808 39.375 25.1748 39.375H19.7061C18.8 39.375 18.0654 40.1096 18.0654 41.0156V46.4844C18.0654 47.3904 18.8 48.125 19.7061 48.125H25.1748C26.0808 48.125 26.8154 47.3904 26.8154 46.4844ZM37.2061 48.125H42.6748C43.5808 48.125 44.3154 47.3904 44.3154 46.4844V41.0156C44.3154 40.1096 43.5808 39.375 42.6748 39.375H37.2061C36.3 39.375 35.5654 40.1096 35.5654 41.0156V46.4844C35.5654 47.3904 36.3 48.125 37.2061 48.125ZM61.8154 65.0781V70H0.56543V65.0781C0.56543 64.1721 1.30002 63.4375 2.20605 63.4375H4.87207V11.6259C4.87207 10.0376 6.34111 8.75 8.15332 8.75H20.2529V3.28125C20.2529 1.46904 21.722 0 23.5342 0H38.8467C40.6589 0 42.1279 1.46904 42.1279 3.28125V8.75H54.2275C56.0397 8.75 57.5088 10.0376 57.5088 11.6259V63.4375H60.1748C61.0808 63.4375 61.8154 64.1721 61.8154 65.0781ZM11.4346 63.3008H26.8154V54.1406C26.8154 53.2346 27.55 52.5 28.4561 52.5H33.9248C34.8308 52.5 35.5654 53.2346 35.5654 54.1406V63.3008H50.9463V15.3125H42.1279V18.5938C42.1279 20.406 40.6589 21.875 38.8467 21.875H23.5342C21.722 21.875 20.2529 20.406 20.2529 18.5938V15.3125H11.4346V63.3008ZM36.9326 8.75H33.3779V5.19531C33.3779 4.97775 33.2915 4.7691 33.1377 4.61526C32.9838 4.46143 32.7752 4.375 32.5576 4.375H29.8232C29.6057 4.375 29.397 4.46143 29.2432 4.61526C29.0894 4.7691 29.0029 4.97775 29.0029 5.19531V8.75H25.4482C25.2307 8.75 25.022 8.83643 24.8682 8.99026C24.7144 9.1441 24.6279 9.35275 24.6279 9.57031V12.3047C24.6279 12.5222 24.7144 12.7309 24.8682 12.8847C25.022 13.0386 25.2307 13.125 25.4482 13.125H29.0029V16.6797C29.0029 16.8972 29.0894 17.1059 29.2432 17.2597C29.397 17.4136 29.6057 17.5 29.8232 17.5H32.5576C32.7752 17.5 32.9838 17.4136 33.1377 17.2597C33.2915 17.1059 33.3779 16.8972 33.3779 16.6797V13.125H36.9326C37.1502 13.125 37.3588 13.0386 37.5127 12.8847C37.6665 12.7309 37.7529 12.5222 37.7529 12.3047V9.57031C37.7529 9.35275 37.6665 9.1441 37.5127 8.99026C37.3588 8.83643 37.1502 8.75 36.9326 8.75Z" fill="blue"/>
<path d="M18.0654 33.3594V27.8906C18.0654 26.9846 18.8 26.25 19.7061 26.25H25.1748C26.0808 26.25 26.8154 26.9846 26.8154 27.8906V33.3594C26.8154 34.2654 26.0808 35 25.1748 35H19.7061C18.8 35 18.0654 34.2654 18.0654 33.3594ZM37.2061 35H42.6748C43.5808 35 44.3154 34.2654 44.3154 33.3594V27.8906C44.3154 26.9846 43.5808 26.25 42.6748 26.25H37.2061C36.3 26.25 35.5654 26.9846 35.5654 27.8906V33.3594C35.5654 34.2654 36.3 35 37.2061 35ZM26.8154 46.4844V41.0156C26.8154 40.1096 26.0808 39.375 25.1748 39.375H19.7061C18.8 39.375 18.0654 40.1096 18.0654 41.0156V46.4844C18.0654 47.3904 18.8 48.125 19.7061 48.125H25.1748C26.0808 48.125 26.8154 47.3904 26.8154 46.4844ZM37.2061 48.125H42.6748C43.5808 48.125 44.3154 47.3904 44.3154 46.4844V41.0156C44.3154 40.1096 43.5808 39.375 42.6748 39.375H37.2061C36.3 39.375 35.5654 40.1096 35.5654 41.0156V46.4844C35.5654 47.3904 36.3 48.125 37.2061 48.125ZM61.8154 65.0781V70H0.56543V65.0781C0.56543 64.1721 1.30002 63.4375 2.20605 63.4375H4.87207V11.6259C4.87207 10.0376 6.34111 8.75 8.15332 8.75H20.2529V3.28125C20.2529 1.46904 21.722 0 23.5342 0H38.8467C40.6589 0 42.1279 1.46904 42.1279 3.28125V8.75H54.2275C56.0397 8.75 57.5088 10.0376 57.5088 11.6259V63.4375H60.1748C61.0808 63.4375 61.8154 64.1721 61.8154 65.0781ZM11.4346 63.3008H26.8154V54.1406C26.8154 53.2346 27.55 52.5 28.4561 52.5H33.9248C34.8308 52.5 35.5654 53.2346 35.5654 54.1406V63.3008H50.9463V15.3125H42.1279V18.5938C42.1279 20.406 40.6589 21.875 38.8467 21.875H23.5342C21.722 21.875 20.2529 20.406 20.2529 18.5938V15.3125H11.4346V63.3008ZM36.9326 8.75H33.3779V5.19531C33.3779 4.97775 33.2915 4.7691 33.1377 4.61526C32.9838 4.46143 32.7752 4.375 32.5576 4.375H29.8232C29.6057 4.375 29.397 4.46143 29.2432 4.61526C29.0894 4.7691 29.0029 4.97775 29.0029 5.19531V8.75H25.4482C25.2307 8.75 25.022 8.83643 24.8682 8.99026C24.7144 9.1441 24.6279 9.35275 24.6279 9.57031V12.3047C24.6279 12.5222 24.7144 12.7309 24.8682 12.8847C25.022 13.0386 25.2307 13.125 25.4482 13.125H29.0029V16.6797C29.0029 16.8972 29.0894 17.1059 29.2432 17.2597C29.397 17.4136 29.6057 17.5 29.8232 17.5H32.5576C32.7752 17.5 32.9838 17.4136 33.1377 17.2597C33.2915 17.1059 33.3779 16.8972 33.3779 16.6797V13.125H36.9326C37.1502 13.125 37.3588 13.0386 37.5127 12.8847C37.6665 12.7309 37.7529 12.5222 37.7529 12.3047V9.57031C37.7529 9.35275 37.6665 9.1441 37.5127 8.99026C37.3588 8.83643 37.1502 8.75 36.9326 8.75Z" fill="blue" fill-opacity="0.2"/>
<defs>
<linearGradient id="paint0_linear_1581_85" x1="31.1875" y1="0" x2="31.1875" y2="69.9983" gradientUnits="userSpaceOnUse">
<stop stop-color="#429AFF"/>
<stop offset="1" stop-color="#277BE3"/>
</linearGradient>
<radialGradient id="paint1_radial_1581_85" cx="0" cy="0" r="1" gradientUnits="userSpaceOnUse" gradientTransform="translate(31.1904 35) rotate(90) scale(35 30.625)">
<stop/>
<stop offset="1" stop-opacity="0"/>
</radialGradient>
</defs>
</svg>
